<?xml version="1.0" encoding="UTF-8"?>
<svg version="1.1" xmlns="http://www.w3.org/2000/svg" width="1024" height="1024">
<path d="M0 0 C337.92 0 675.84 0 1024 0 C1024 337.92 1024 675.84 1024 1024 C686.08 1024 348.16 1024 0 1024 C0 686.08 0 348.16 0 0 Z " fill="#041F3A" transform="translate(0,0)"/>
<path d="M0 0 C1.15334807 -0.00467997 2.30669615 -0.00935994 3.49499416 -0.01418173 C7.32694223 -0.02606659 11.15852834 -0.01669978 14.99047852 -0.00723267 C17.75107554 -0.00965219 20.51165761 -0.01653701 23.27224731 -0.02316284 C29.97232703 -0.0364537 36.67230552 -0.03364328 43.37238908 -0.02492492 C48.8210929 -0.01813039 54.26976849 -0.01723928 59.71847534 -0.02049637 C60.49603666 -0.02095607 61.27359797 -0.02141577 62.07472175 -0.0218894 C63.65466858 -0.02284864 65.23461539 -0.02382128 66.8145622 -0.02480717 C81.60536015 -0.03334745 96.39610218 -0.02354837 111.18689096 -0.00740607 C123.85875282 0.00599587 136.53053221 0.0036674 149.20239258 -0.01016235 C163.94280001 -0.02624229 178.68315852 -0.0325236 193.42357349 -0.02332556 C194.99748038 -0.02236999 196.57138728 -0.02142687 198.14529419 -0.02049637 C199.30667024 -0.01980213 199.30667024 -0.01980213 200.49150842 -0.01909386 C205.92923663 -0.01651121 211.36693362 -0.02085929 216.80465698 -0.02793503 C223.43778006 -0.03637711 230.07079673 -0.03401327 236.70390773 -0.0180928 C240.08372303 -0.01024621 243.46321581 -0.00869012 246.84305191 -0.01704025 C250.51679914 -0.02527767 254.19005343 -0.01490694 257.86376953 0 C258.91787742 -0.00669217 259.9719853 -0.01338433 261.05803585 -0.02027929 C277.71241757 0.11016723 290.23089328 5.72058789 301.93188477 17.38095093 C302.79813477 18.21239624 302.79813477 18.21239624 303.68188477 19.06063843 C314.58360669 30.47337857 317.39807146 47.3389797 317.31956482 62.4539032 C317.32764313 64.34613413 317.32764313 64.34613413 317.33588463 66.27659196 C317.35022447 69.74368265 317.34613087 73.21053332 317.33871782 76.6776365 C317.3339597 80.43032593 317.34651927 84.18296538 317.35673523 87.93563843 C317.37387761 95.27439796 317.37477268 102.6130717 317.36952233 109.95184604 C317.36547054 115.92111954 317.36693613 121.89036781 317.37227058 127.85964012 C317.37301901 128.71127002 317.37376743 129.56289992 317.37453853 130.44033679 C317.37607011 132.17078542 317.37760846 133.90123404 317.3791535 135.63168266 C317.39286227 151.83750785 317.38745248 168.04328468 317.37596828 184.24910875 C317.36603964 199.04983935 317.37897309 213.85044486 317.40290248 228.65115616 C317.42733112 243.87627856 317.43689198 259.10134279 317.43024975 274.32648438 C317.42676562 282.86310761 317.428936 291.39963472 317.44650078 299.93624306 C317.46127003 307.20390236 317.46179694 314.47139787 317.44442987 321.73905412 C317.43595576 325.4412605 317.43368133 329.14317487 317.44908142 332.84536552 C317.53200365 354.35580494 317.33233378 373.43753235 301.80688477 390.13095093 C283.84869936 406.84541065 264.57400127 406.97482061 241.2890625 406.89852905 C238.50170611 406.90175843 235.71437598 406.91093919 232.92703247 406.91976929 C226.17252512 406.93746068 219.41819658 406.93375689 212.66368251 406.92211872 C207.16977137 406.9130482 201.67590998 406.91187596 196.18199348 406.91621399 C195.00463826 406.91713339 195.00463826 406.91713339 193.80349808 406.91807136 C192.20849631 406.91935039 190.61349456 406.92064724 189.01849283 406.92196172 C174.09836643 406.93333984 159.1783387 406.92029706 144.25822849 406.89876026 C131.48183606 406.88088828 118.70558903 406.88399956 105.92919922 406.9024353 C91.05726214 406.92388507 76.18541128 406.93224513 61.31346089 406.91998625 C59.7249607 406.91871218 58.1364605 406.91745469 56.54796028 406.91621399 C55.37589532 406.91528834 55.37589532 406.91528834 54.18015228 406.91434398 C48.69823518 406.91090364 43.2163732 406.91669083 37.73446465 406.9261322 C31.0461787 406.93739921 24.3580803 406.93421395 17.66981559 406.91300923 C14.26332666 406.90256182 10.85740525 406.90045372 7.45088005 406.91160583 C-13.37430949 406.97347428 -29.98215857 406.06599505 -45.88061523 391.06845093 C-57.79577271 378.55646982 -61.37946234 364.27654845 -61.33554077 347.50344849 C-61.34007188 346.22677913 -61.344603 344.95010977 -61.34927142 343.63475347 C-61.36144405 340.11146664 -61.36124777 336.58827518 -61.35888267 333.06497216 C-61.35847304 329.25706045 -61.36952748 325.44917872 -61.3789978 321.64128113 C-61.39557713 314.1884988 -61.40110595 306.73574811 -61.40222256 299.28294888 C-61.40317447 293.22205749 -61.40729189 287.16117649 -61.41362381 281.10028839 C-61.43122767 263.89866368 -61.44046399 246.69706387 -61.43896286 229.49543008 C-61.43888295 228.5690045 -61.43880304 227.64257892 -61.4387207 226.68807983 C-61.43863894 225.76051696 -61.43855718 224.83295409 -61.43847294 223.87728325 C-61.43766023 208.84868741 -61.45679633 193.82019184 -61.48499744 178.79162499 C-61.5137572 163.34287063 -61.52753604 147.89416511 -61.52580988 132.44538331 C-61.52514706 123.77910516 -61.53059203 115.11293213 -61.55216599 106.44667816 C-61.5704185 99.0676406 -61.5746918 91.68875583 -61.56114714 84.30970541 C-61.554638 80.54903052 -61.55442526 76.78864842 -61.57185364 73.02800179 C-61.59060066 68.94057801 -61.57797654 64.85382576 -61.56259155 60.76638794 C-61.57287868 59.59252714 -61.58316581 58.41866634 -61.59376466 57.209234 C-61.46036009 41.10024116 -55.36444227 28.34304811 -44.49389648 16.70516968 C-31.90094625 4.63946052 -17.22676336 -0.10936674 0 0 Z " fill="#041F39" transform="translate(387.068115234375,187.61904907226563)"/>
<path d="M0 0 C1.15334807 -0.00467997 2.30669615 -0.00935994 3.49499416 -0.01418173 C7.32694223 -0.02606659 11.15852834 -0.01669978 14.99047852 -0.00723267 C17.75107554 -0.00965219 20.51165761 -0.01653701 23.27224731 -0.02316284 C29.97232703 -0.0364537 36.67230552 -0.03364328 43.37238908 -0.02492492 C48.8210929 -0.01813039 54.26976849 -0.01723928 59.71847534 -0.02049637 C60.49603666 -0.02095607 61.27359797 -0.02141577 62.07472175 -0.0218894 C63.65466858 -0.02284864 65.23461539 -0.02382128 66.8145622 -0.02480717 C81.60536015 -0.03334745 96.39610218 -0.02354837 111.18689096 -0.00740607 C123.85875282 0.00599587 136.53053221 0.0036674 149.20239258 -0.01016235 C163.94280001 -0.02624229 178.68315852 -0.0325236 193.42357349 -0.02332556 C194.99748038 -0.02236999 196.57138728 -0.02142687 198.14529419 -0.02049637 C199.30667024 -0.01980213 199.30667024 -0.01980213 200.49150842 -0.01909386 C205.92923663 -0.01651121 211.36693362 -0.02085929 216.80465698 -0.02793503 C223.43778006 -0.03637711 230.07079673 -0.03401327 236.70390773 -0.0180928 C240.08372303 -0.01024621 243.46321581 -0.00869012 246.84305191 -0.01704025 C250.51679914 -0.02527767 254.19005343 -0.01490694 257.86376953 0 C258.91787742 -0.00669217 259.9719853 -0.01338433 261.05803585 -0.02027929 C277.71241757 0.11016723 290.23089328 5.72058789 301.93188477 17.38095093 C302.79813477 18.21239624 302.79813477 18.21239624 303.68188477 19.06063843 C314.58360669 30.47337857 317.39807146 47.3389797 317.31956482 62.4539032 C317.32764313 64.34613413 317.32764313 64.34613413 317.33588463 66.27659196 C317.35022447 69.74368265 317.34613087 73.21053332 317.33871782 76.6776365 C317.3339597 80.43032593 317.34651927 84.18296538 317.35673523 87.93563843 C317.37387761 95.27439796 317.37477268 102.6130717 317.36952233 109.95184604 C317.36547054 115.92111954 317.36693613 121.89036781 317.37227058 127.85964012 C317.37301901 128.71127002 317.37376743 129.56289992 317.37453853 130.44033679 C317.37607011 132.17078542 317.37760846 133.90123404 317.3791535 135.63168266 C317.39286227 151.83750785 317.38745248 168.04328468 317.37596828 184.24910875 C317.36603964 199.04983935 317.37897309 213.85044486 317.40290248 228.65115616 C317.42733112 243.87627856 317.43689198 259.10134279 317.43024975 274.32648438 C317.42676562 282.86310761 317.428936 291.39963472 317.44650078 299.93624306 C317.46127003 307.20390236 317.46179694 314.47139787 317.44442987 321.73905412 C317.43595576 325.4412605 317.43368133 329.14317487 317.44908142 332.84536552 C317.53200365 354.35580494 317.33233378 373.43753235 301.80688477 390.13095093 C283.84869936 406.84541065 264.57400127 406.97482061 241.2890625 406.89852905 C238.50170611 406.90175843 235.71437598 406.91093919 232.92703247 406.91976929 C226.17252512 406.93746068 219.41819658 406.93375689 212.66368251 406.92211872 C207.16977137 406.9130482 201.67590998 406.91187596 196.18199348 406.91621399 C195.00463826 406.91713339 195.00463826 406.91713339 193.80349808 406.91807136 C192.20849631 406.91935039 190.61349456 406.92064724 189.01849283 406.92196172 C174.09836643 406.93333984 159.1783387 406.92029706 144.25822849 406.89876026 C131.48183606 406.88088828 118.70558903 406.88399956 105.92919922 406.9024353 C91.05726214 406.92388507 76.18541128 406.93224513 61.31346089 406.91998625 C59.7249607 406.91871218 58.1364605 406.91745469 56.54796028 406.91621399 C55.37589532 406.91528834 55.37589532 406.91528834 54.18015228 406.91434398 C48.69823518 406.91090364 43.2163732 406.91669083 37.73446465 406.9261322 C31.0461787 406.93739921 24.3580803 406.93421395 17.66981559 406.91300923 C14.26332666 406.90256182 10.85740525 406.90045372 7.45088005 406.91160583 C-13.37430949 406.97347428 -29.98215857 406.06599505 -45.88061523 391.06845093 C-57.79577271 378.55646982 -61.37946234 364.27654845 -61.33554077 347.50344849 C-61.34007188 346.22677913 -61.344603 344.95010977 -61.34927142 343.63475347 C-61.36144405 340.11146664 -61.36124777 336.58827518 -61.35888267 333.06497216 C-61.35847304 329.25706045 -61.36952748 325.44917872 -61.3789978 321.64128113 C-61.39557713 314.1884988 -61.40110595 306.73574811 -61.40222256 299.28294888 C-61.40317447 293.22205749 -61.40729189 287.16117649 -61.41362381 281.10028839 C-61.43122767 263.89866368 -61.44046399 246.69706387 -61.43896286 229.49543008 C-61.43888295 228.5690045 -61.43880304 227.64257892 -61.4387207 226.68807983 C-61.43863894 225.76051696 -61.43855718 224.83295409 -61.43847294 223.87728325 C-61.43766023 208.84868741 -61.45679633 193.82019184 -61.48499744 178.79162499 C-61.5137572 163.34287063 -61.52753604 147.89416511 -61.52580988 132.44538331 C-61.52514706 123.77910516 -61.53059203 115.11293213 -61.55216599 106.44667816 C-61.5704185 99.0676406 -61.5746918 91.68875583 -61.56114714 84.30970541 C-61.554638 80.54903052 -61.55442526 76.78864842 -61.57185364 73.02800179 C-61.59060066 68.94057801 -61.57797654 64.85382576 -61.56259155 60.76638794 C-61.57287868 59.59252714 -61.58316581 58.41866634 -61.59376466 57.209234 C-61.46036009 41.10024116 -55.36444227 28.34304811 -44.49389648 16.70516968 C-31.90094625 4.63946052 -17.22676336 -0.10936674 0 0 Z M-29.06811523 37.38095093 C-33.39560372 43.64131269 -35.187565 49.13067725 -35.20233631 56.74717236 C-35.20679416 57.81687966 -35.211252 58.88658696 -35.21584493 59.98870963 C-35.21566057 61.1579544 -35.2154762 62.32719918 -35.21528625 63.53187561 C-35.21896294 64.7786591 -35.22263963 66.02544259 -35.22642773 67.31000739 C-35.23642476 70.76828772 -35.24016081 74.2265507 -35.24281704 77.68484342 C-35.24672685 81.41573214 -35.25630461 85.1466072 -35.26502991 88.87748718 C-35.2847737 97.88553629 -35.29485721 106.8935865 -35.3037577 115.90165183 C-35.30814342 120.14565063 -35.31350943 124.38964819 -35.31874657 128.63364601 C-35.33575563 142.7443691 -35.35024986 156.85509141 -35.35749531 170.96582317 C-35.35940514 174.62592762 -35.36132548 178.28603205 -35.36328125 181.94613647 C-35.36376499 182.85581398 -35.36424873 183.76549149 -35.36474713 184.70273498 C-35.37304773 199.43938064 -35.39838659 214.17594514 -35.43086193 228.91255536 C-35.4639442 244.04814966 -35.48194506 259.18370273 -35.48513955 274.31933337 C-35.4873034 282.8151149 -35.49603396 291.31077802 -35.52160072 299.80652428 C-35.54332356 307.04154203 -35.55135032 314.27641259 -35.54163394 321.51145925 C-35.537094 325.20085842 -35.53895735 328.88995399 -35.55839539 332.57931137 C-35.57931618 336.58478968 -35.56902678 340.58959682 -35.55586243 344.59510803 C-35.56683167 345.7531992 -35.57780092 346.91129036 -35.58910257 348.1044752 C-35.50978724 358.11256645 -33.09499081 366.28112802 -26.09165901 373.63850546 C-18.87185303 379.85538022 -11.47999581 381.1115572 -2.22032166 381.00241089 C-1.06656573 381.00879971 0.08719019 381.01518853 1.27590841 381.02177095 C5.12130933 381.03696617 8.96567097 381.01659416 12.81103516 380.9961853 C15.57621256 380.99692279 18.34135647 381.00515248 21.10652161 381.01300049 C27.82466305 381.02748873 34.54250111 381.01533225 41.26061375 380.99388725 C49.09095909 380.96981405 56.92123585 380.97159547 64.75160997 380.97419316 C78.72623377 380.97787916 92.70071511 380.95709332 106.67529297 380.92294312 C120.22318115 380.88984811 133.77091987 380.8756864 147.31884766 380.88192749 C162.08742178 380.88869747 176.8559334 380.88621451 191.62449831 380.86656809 C192.79681799 380.86500886 192.79681799 380.86500886 193.9928209 380.86341813 C195.562324 380.86132731 197.13182707 380.85921633 198.70133011 380.85708496 C204.15446424 380.85020112 209.60757907 380.84951809 215.06071663 380.85096741 C221.70899352 380.85240979 228.35714885 380.84266744 235.00538547 380.81902105 C238.39493125 380.80719294 241.78416609 380.80162479 245.17375183 380.80585861 C248.85305255 380.8095775 252.53183399 380.79481048 256.21107483 380.77536011 C257.27528548 380.78068803 258.33949613 380.78601596 259.43595558 380.79150534 C268.2735435 380.71098903 275.75292259 379.30220211 282.36547852 373.11923218 C290.02713153 364.61689903 291.22874863 356.19479819 291.1993103 345.07853699 C291.20610697 343.20201314 291.20610697 343.20201314 291.21304095 341.28757972 C291.22525828 337.82206276 291.22501198 334.35664244 291.2226522 330.89110887 C291.2222437 327.1506676 291.2332864 323.41025718 291.24276733 319.66983032 C291.25937206 312.34364106 291.26487667 305.01748399 291.26599209 297.69127748 C291.26694295 291.73422537 291.27105514 285.77718387 291.27739334 279.82013512 C291.29500541 262.9226797 291.30423243 246.02524967 291.30273239 229.127785 C291.30265248 228.21705974 291.30257257 227.30633447 291.30249023 226.36801147 C291.30236759 225.00025101 291.30236759 225.00025101 291.30224247 223.60485902 C291.3014299 208.83338162 291.32056047 194.06200627 291.34876697 179.29055838 C291.37751518 164.11537151 291.39130615 148.94023438 291.38957942 133.7650196 C291.38891611 125.24854866 291.39438192 116.73218467 291.41593552 108.2157383 C291.43417297 100.96319841 291.43847377 93.71081392 291.42491667 86.45826099 C291.41839949 82.7606362 291.41822405 79.06330932 291.43562317 75.36571312 C291.45432559 71.34967919 291.44176669 67.33433096 291.42636108 63.31828308 C291.44179177 61.58070235 291.44179177 61.58070235 291.45753419 59.80801898 C291.37051175 49.51772278 289.10221953 40.63188827 281.86547852 33.03720093 C276.39342655 28.35002914 270.23224723 26.26185808 263.09196949 26.24672985 C261.62532249 26.24004308 261.62532249 26.24004308 260.12904626 26.23322123 C258.52153364 26.23349778 258.52153364 26.23349778 256.88154602 26.23377991 C255.74108375 26.23010322 254.60062148 26.22642653 253.42559975 26.22263843 C249.58955548 26.2115919 245.75353828 26.2077561 241.91748047 26.20394897 C239.17290515 26.19821719 236.42833389 26.1910512 233.6837616 26.18403625 C225.43763586 26.16428487 217.19150893 26.15420761 208.94536546 26.14530846 C205.06086302 26.14092365 201.17636194 26.13555737 197.29186058 26.1303196 C184.37699956 26.11330913 171.46213937 26.09881507 158.54726887 26.09157085 C155.19671439 26.08966101 151.84615992 26.08774066 148.49560547 26.08578491 C147.66285613 26.08530117 146.8301068 26.08481743 145.97212263 26.08431903 C132.48277384 26.07601908 118.99351373 26.05068196 105.50420365 26.01820423 C91.65120976 25.98512309 77.79826093 25.96712117 63.94522732 25.96392661 C56.1687798 25.96176256 48.39246163 25.95302924 40.61605263 25.92746544 C33.99325963 25.90574405 27.37062741 25.89771507 20.74780283 25.90743222 C17.37034033 25.91197284 13.99347808 25.90791748 10.61601639 25.89067078 C6.94944511 25.87299604 3.28371343 25.88003754 -0.38285828 25.89320374 C-1.44337975 25.88223449 -2.50390122 25.87126524 -3.5965597 25.8599636 C-14.04378731 25.95044223 -22.05733725 29.57592358 -29.06811523 37.38095093 Z " fill="#F7F7F7" transform="translate(387.068115234375,187.61904907226563)"/>
<path d="M0 0 C9.87111231 7.35552333 17.05413558 16.51561189 19.55859375 28.72265625 C20.91131873 38.76633997 21.13878418 49.59976549 17 59 C16.67128906 59.75410156 16.34257813 60.50820313 16.00390625 61.28515625 C10.68269855 72.01963406 2.02646131 78.68797602 -9 83 C-18.91401068 85.47473022 -28.52778632 84.141456 -37.375 79.0625 C-40 77 -40 77 -44 73 C-44.33 86.86 -44.66 100.72 -45 115 C-52.26 115 -59.52 115 -67 115 C-67 76.06 -67 37.12 -67 -3 C-60.4 -3 -53.8 -3 -47 -3 C-47 1.29 -47 5.58 -47 10 C-46.34 10 -45.68 10 -45 10 C-44.73703125 9.40316406 -44.4740625 8.80632813 -44.203125 8.19140625 C-41.25467792 2.8210205 -35.53354075 -0.71440708 -30 -3 C-20.21039158 -5.4345436 -8.72680925 -5.41965449 0 0 Z " fill="#EFF0F1" transform="translate(879,706)"/>
<path d="M0 0 C6.93 0 13.86 0 21 0 C21 38.94 21 77.88 21 118 C14.73 118 8.46 118 2 118 C1.34 114.7 0.68 111.4 0 108 C-0.66 108 -1.32 108 -2 108 C-2.7734375 109.0828125 -2.7734375 109.0828125 -3.5625 110.1875 C-8.47842452 115.8597206 -16.20096141 119.53991518 -23.6484375 120.25390625 C-34.59015139 120.68988714 -43.64044959 117.44742366 -51.9609375 110.3203125 C-60.65274012 102.27474056 -64.85716947 92.3269427 -65.3359375 80.5390625 C-65.35959256 78.56780726 -65.37241964 76.59639548 -65.375 74.625 C-65.39949219 73.64789062 -65.42398437 72.67078125 -65.44921875 71.6640625 C-65.49512513 60.1568639 -60.92447282 50.46073976 -53.1875 42.0234375 C-48.35548531 37.44471391 -43.27660939 35.07362229 -37 33 C-35.515 32.505 -35.515 32.505 -34 32 C-22.21420323 30.99167798 -13.90028225 33.34547867 -4.59375 40.53515625 C-3 42 -3 42 -1 45 C-0.67 30.15 -0.34 15.3 0 0 Z " fill="#F7F7F7" transform="translate(401,670)"/>
<path d="M0 0 C9.640189 7.75209172 14.81222552 18.57698915 16.3515625 30.7890625 C16.7730134 43.77741302 13.33058542 57.38897719 4.5625 67.1875 C-5.68241766 76.735221 -19.17139017 80.59456123 -32.921875 80.3125 C-43.67626868 79.22068338 -54.41216369 74.16070433 -61.8125 66.25 C-71.1430742 54.71881868 -72.90510435 42.352369 -72 28 C-71.42040632 24.42015666 -70.44570311 21.32016988 -69 18 C-68.60941406 17.09765625 -68.21882812 16.1953125 -67.81640625 15.265625 C-62.22929116 3.80649943 -53.27579989 -3.04435718 -41.5 -7.25 C-27.1705624 -10.42173322 -12.14850015 -8.11766139 0 0 Z " fill="#F6F6F7" transform="translate(310,710)"/>
<path d="M0 0 C0.68457275 0.33193359 1.36914551 0.66386719 2.07446289 1.00585938 C5.98241139 3.03172396 7.08156529 3.91313058 9.125 8 C5.495 12.95 1.865 17.9 -1.875 23 C-5.83416395 22.01020901 -8.99829172 20.44957477 -12.5625 18.5625 C-21.64022502 13.91690972 -30.95212089 11.16028061 -41.1796875 13.53515625 C-44.07753764 14.50641371 -46.50050149 15.69571996 -48.875 17.625 C-50.43166834 21.32208732 -50.71572988 25.07438726 -49.875 29 C-47.06494032 33.56115598 -43.63951116 35.42498001 -38.8125 37.375 C-38.12003174 37.66826172 -37.42756348 37.96152344 -36.71411133 38.26367188 C-32.0369076 40.21246348 -27.29517342 41.94117327 -22.51879883 43.62915039 C-9.19827133 48.35177454 1.41041606 53.78292913 9.0625 66.125 C12.21556196 74.68331102 10.87702045 85.84219796 7.125 94 C1.45312403 104.14393201 -8.06333673 108.80564494 -18.875 112 C-36.97828299 116.45211031 -56.53124663 110.77224301 -72.0625 101.4375 C-76.53966733 98.6640902 -76.53966733 98.6640902 -77.87109375 96.02734375 C-77.87669029 93.12273812 -76.73584867 92.19393857 -74.75 90.125 C-74.10675781 89.43664062 -73.46351563 88.74828125 -72.80078125 88.0390625 C-72.16527344 87.36617187 -71.52976562 86.69328125 -70.875 86 C-69.88558199 84.84201448 -68.90487535 83.67646224 -67.9375 82.5 C-67.256875 81.675 -66.57625 80.85 -65.875 80 C-62.38191989 81.29373338 -59.42621228 82.8413402 -56.3125 84.875 C-45.91802348 91.14858938 -35.23074157 93.87114831 -23.16015625 91.45703125 C-18.74705473 90.1624261 -16.27510505 89.09472468 -13.875 85 C-13.21058917 81.59489448 -13.29714513 78.41712255 -13.875 75 C-19.0226703 67.60022394 -28.90756656 65.19276139 -37.125 62.625 C-64.64828469 53.67490299 -64.64828469 53.67490299 -71.375 40.75 C-75.11048255 32.37975206 -75.13159557 22.7697867 -72.25 14.125 C-67.89650496 3.70986777 -60.11625742 -1.26855287 -50.0625 -5.8125 C-33.68421947 -11.91421235 -15.12599507 -7.3640387 0 0 Z " fill="#F6F6F7" transform="translate(603.875,677)"/>
<path d="M0 0 C15.31771764 -0.59995956 31.17646507 3.93538744 42.87890625 14.0625 C43.97448728 15.09127731 45.06307184 16.1279352 46.12890625 17.1875 C44.39924465 21.39703787 41.4468388 24.53893576 38.50390625 27.9375 C37.98828125 28.53949219 37.47265625 29.14148438 36.94140625 29.76171875 C35.6742149 31.24010866 34.4020485 32.71423171 33.12890625 34.1875 C32.45085937 33.72859375 31.7728125 33.2696875 31.07421875 32.796875 C19.99627931 25.49341354 9.59534036 20.92945155 -3.87109375 22.1875 C-15.39648439 24.9580266 -24.65725991 31.04575047 -30.87109375 41.1875 C-36.12816759 50.98618792 -36.52369177 62.94704833 -33.74609375 73.625 C-30.27190634 83.28453976 -23.92180455 90.66753079 -14.87109375 95.4375 C-3.60499358 100.61731617 6.51432898 100.04885092 18.12890625 96.1875 C24.42616421 93.60351754 24.42616421 93.60351754 29.78125 89.53125 C31.12890625 88.1875 31.12890625 88.1875 33.12890625 88.1875 C34.88127729 90.23587967 36.51517385 92.28431991 38.12890625 94.4375 C38.58007812 95.02402344 39.03125 95.61054687 39.49609375 96.21484375 C41.67855246 99.08819916 43.68397842 101.87073384 45.12890625 105.1875 C29.28443636 118.46776824 12.48162549 122.74796406 -7.87109375 121.1875 C-21.85385841 119.52442291 -36.6285251 111.76263862 -45.87109375 101.1875 C-58.09059313 84.85544183 -60.53127082 68.20147892 -58.87109375 48.1875 C-56.43176595 33.09877917 -47.22839713 20.46214338 -35.37890625 11.25 C-24.62801438 3.84879254 -12.85478716 0.8394963 0 0 Z " fill="#F8F9F9" transform="translate(183.87109375,668.8125)"/>
<path d="M0 0 C0.69689941 -0.00555908 1.39379883 -0.01111816 2.11181641 -0.0168457 C12.87830789 0.1324408 21.85029774 3.60404759 29.609375 11.04296875 C35.59103575 19.31759946 35.7956822 27.22980536 35.640625 37.19140625 C35.63314983 38.61343077 35.62746294 40.0354657 35.62347412 41.45750427 C35.60831772 45.17145021 35.5691252 48.88475451 35.5246582 52.59844971 C35.48348723 56.39952926 35.4654169 60.20071411 35.4453125 64.00195312 C35.40261846 71.43912626 35.33235374 78.8756409 35.25 86.3125 C28.65 86.3125 22.05 86.3125 15.25 86.3125 C15.25 83.3425 15.25 80.3725 15.25 77.3125 C14.59 77.3125 13.93 77.3125 13.25 77.3125 C12.99476563 77.91835938 12.73953125 78.52421875 12.4765625 79.1484375 C9.81743031 83.84002741 4.51029325 85.85618693 -0.375 87.625 C-11.2786035 89.83142664 -22.37762427 89.08528802 -31.84375 82.95703125 C-36.99415935 78.88689844 -40.44123104 73.81965036 -41.75 67.3125 C-42.63226749 59.06836112 -41.06823591 52.18556644 -36.3828125 45.3046875 C-30.05992005 38.03807976 -20.04902429 35.25716278 -10.75 34.3125 C-7.56081078 34.18370716 -4.37892339 34.17245794 -1.1875 34.1875 C-0.36314453 34.18363281 0.46121094 34.17976562 1.31054688 34.17578125 C5.73700657 34.18285792 9.89286807 34.42271293 14.25 35.3125 C12.44429969 27.33439784 12.44429969 27.33439784 7.25 21.3125 C2.00724425 18.69112212 -7.16184002 19.23552017 -12.7265625 20.90576172 C-15.65373675 22.07617213 -18.40628979 23.49884528 -21.17578125 25 C-23.75 26.3125 -23.75 26.3125 -26.75 26.3125 C-28.45410173 24.00504619 -29.95816244 21.75682809 -31.4375 19.3125 C-31.85322266 18.64476562 -32.26894531 17.97703125 -32.69726562 17.2890625 C-33.72444224 15.63613462 -34.73847336 13.97505112 -35.75 12.3125 C-26.94191093 2.70923623 -12.51797473 0.08319857 0 0 Z " fill="#F5F5F6" transform="translate(760.75,701.6875)"/>
<path d="M0 0 C10.66699294 8.05607035 14.89767759 18.06510779 17.42578125 30.83203125 C17.42578125 35.12203125 17.42578125 39.41203125 17.42578125 43.83203125 C-2.70421875 43.83203125 -22.83421875 43.83203125 -43.57421875 43.83203125 C-38.75823765 54.85265336 -38.75823765 54.85265336 -30.57421875 60.83203125 C-22.33254436 63.57925605 -12.51846866 62.56966147 -4.72265625 59 C-2.29933973 57.68259702 0.06059043 56.25114574 2.42578125 54.83203125 C5.72578125 58.79203125 9.02578125 62.75203125 12.42578125 66.83203125 C9.01055211 73.66248954 1.71665376 77.25467646 -5.38671875 79.70703125 C-18.55407258 83.73109683 -31.88113966 82.81369049 -44.13671875 76.70703125 C-54.22859857 70.72335029 -60.39441087 62.22946436 -63.67578125 51.09375 C-66.63551467 38.61380843 -65.49376422 25.21023301 -59.57421875 13.83203125 C-53.99583357 4.85219169 -45.58530142 -2.76019225 -35.25390625 -5.73828125 C-22.91656722 -7.71657176 -10.64423195 -6.80370036 0 0 Z " fill="#F6F6F7" transform="translate(500.57421875,708.16796875)"/>
<path d="M0 0 C7.71813485 5.37209386 13.32190672 12.00485386 15.5453949 21.27348328 C16.03808064 24.22839056 16.11993988 26.98807745 16.11352539 29.98364258 C16.11341209 31.75491264 16.11341209 31.75491264 16.11329651 33.56196594 C16.10813522 34.82671249 16.10297394 36.09145905 16.09765625 37.39453125 C16.0962413 38.69702316 16.09482635 39.99951508 16.09336853 41.34147644 C16.08956355 44.79216454 16.07975064 48.24281008 16.06866455 51.69348145 C16.05840689 55.21947657 16.0538616 58.74547861 16.04882812 62.27148438 C16.03812644 69.18100876 16.02054612 76.09049795 16 83 C8.74 83 1.48 83 -6 83 C-6.01458252 81.36530762 -6.02916504 79.73061523 -6.04418945 78.04638672 C-6.10221478 71.97438822 -6.17944847 65.9027589 -6.26245117 59.83105469 C-6.29568038 57.20448809 -6.3237185 54.57785043 -6.34643555 51.95117188 C-6.38001728 48.17286939 -6.43233753 44.39521695 -6.48828125 40.6171875 C-6.49467117 39.44509735 -6.5010611 38.2730072 -6.50764465 37.06539917 C-6.62968049 29.10942951 -6.62968049 29.10942951 -10 22 C-15.1963688 17.19335886 -19.40675534 16.64112572 -26.2734375 16.72265625 C-31.31940897 17.23592842 -33.84146317 19.71910505 -37.12207031 23.34619141 C-40.28845521 28.2589499 -39.60357568 34.20028403 -39.609375 39.8359375 C-39.62591125 41.07042633 -39.64244751 42.30491516 -39.65948486 43.57681274 C-39.70796816 47.50959244 -39.72933786 51.44198538 -39.75 55.375 C-39.7759638 58.04563145 -39.80808628 60.71614473 -39.83984375 63.38671875 C-39.9137281 69.92444734 -39.96330144 76.46196118 -40 83 C-47.26 83 -54.52 83 -62 83 C-62 54.95 -62 26.9 -62 -2 C-55.73 -2 -49.46 -2 -43 -2 C-42.67 1.63 -42.34 5.26 -42 9 C-41.175 7.9275 -40.35 6.855 -39.5 5.75 C-30.33827642 -4.97486125 -12.14161784 -6.26021018 0 0 Z " fill="#F3F4F4" transform="translate(690,705)"/>
<path d="M0 0 C3.20008327 2.46863567 4.88973538 3.79420614 6.1875 7.6875 C6.6573704 13.60018825 5.32769818 17.78647484 3.171875 23.15625 C2.52058258 24.8502187 1.87295497 26.54559984 1.22851562 28.2421875 C0.89086182 29.13067383 0.55320801 30.01916016 0.20532227 30.93457031 C-1.51755551 35.59448152 -3.06670082 40.30916889 -4.609375 45.03125 C-5.08827934 46.49624939 -5.08827934 46.49624939 -5.57685852 47.99084473 C-6.57526394 51.05536904 -7.5690906 54.12135289 -8.5625 57.1875 C-9.26899716 59.35876535 -9.97562328 61.52998874 -10.68237305 63.70117188 C-14.50859409 75.47476636 -18.27896352 87.26448789 -21.96731567 99.08197021 C-23.46936453 103.89067324 -24.9826745 108.69584248 -26.49609375 113.50097656 C-27.41793655 116.4284175 -28.33337551 119.35778808 -29.24609375 122.28808594 C-30.45115209 126.14974504 -31.67787543 130.00397003 -32.91879272 133.85424805 C-33.38294374 135.30561002 -33.84021306 136.75919413 -34.28994751 138.21508789 C-38.66219999 152.34302313 -38.66219999 152.34302313 -44.8125 155.6875 C-48.85623869 156.73542009 -52.96561058 156.6487908 -56.71875 154.6953125 C-59.509486 152.49281988 -61.92294994 150.14686133 -62.8125 146.6875 C-62.3309774 141.32536381 -61.33256472 136.58294544 -59.66796875 131.44140625 C-59.44956833 130.76179337 -59.23116791 130.08218048 -59.00614929 129.38197327 C-58.28418605 127.14734162 -57.54999234 124.91705217 -56.8125 122.6875 C-56.43088715 121.53009308 -56.43088715 121.53009308 -56.04156494 120.3493042 C-54.38368713 115.33053403 -52.70737416 110.3180572 -51.02514648 105.30740356 C-46.55182393 91.97706615 -42.11281991 78.63722458 -37.8125 65.25 C-37.43053467 64.0640625 -37.04856934 62.878125 -36.6550293 61.65625 C-34.79213235 55.866834 -32.93521752 50.0756129 -31.09082031 44.28027344 C-29.52756171 39.36946501 -27.9546883 34.46180883 -26.37695312 29.55563354 C-25.75598746 27.61852487 -25.13841258 25.6803256 -24.52441406 23.74099731 C-23.66292518 21.02109738 -22.78975684 18.30519794 -21.9140625 15.58984375 C-21.66024811 14.77873138 -21.40643372 13.96761902 -21.14492798 13.13192749 C-19.43546833 7.88448238 -17.54042633 2.83087068 -13.0625 -0.6875 C-8.37652009 -1.98916109 -4.35882818 -2.03411982 0 0 Z " fill="#FC943D" transform="translate(541.8125,315.3125)"/>
<path d="M0 0 C4.52403537 1.89378225 7.24610384 4.98717989 10 9 C10.75 11.875 10.75 11.875 10 15 C5.48267131 21.06716799 -0.20416336 26.33860218 -5.55859375 31.65625 C-6.34774673 32.44398804 -7.13689972 33.23172607 -7.94996643 34.04333496 C-10.44345012 36.53127102 -12.94040784 39.01568624 -15.4375 41.5 C-17.14020587 43.1976841 -18.84268207 44.89559858 -20.54492188 46.59375 C-24.69396412 50.7318328 -28.84585576 54.86703935 -33 59 C-31.68582318 61.90432092 -30.27584791 63.97315168 -28.02246094 66.22045898 C-27.42133484 66.82466171 -26.82020874 67.42886444 -26.2008667 68.05137634 C-25.55192444 68.69313309 -24.90298218 69.33488983 -24.234375 69.99609375 C-23.56335754 70.66665298 -22.89234009 71.33721222 -22.20098877 72.02809143 C-20.7810512 73.4450108 -19.35868684 74.85950179 -17.93408203 76.27172852 C-15.76672274 78.42091746 -13.60738672 80.57791373 -11.44921875 82.73632812 C-10.06557338 84.11505438 -8.68147327 85.49332446 -7.296875 86.87109375 C-6.65602966 87.51082626 -6.01518433 88.15055878 -5.35491943 88.80967712 C-1.71143439 92.41528766 2.02899297 95.75943968 6 99 C8.58431472 101.58431472 8.96433407 102.67900666 9.375 106.375 C8.81180491 111.81921917 7.40514176 114.78646848 3.25 118.375 C-0.61081305 120.30540652 -2.73431986 120.60938288 -7 120 C-11.23531051 117.47710588 -14.66690448 114.58537764 -18.14746094 111.11132812 C-18.86084373 110.40320229 -18.86084373 110.40320229 -19.58863831 109.68077087 C-21.14224888 108.13588536 -22.68851956 106.58389252 -24.234375 105.03125 C-25.31930868 103.94766517 -26.40453897 102.86437725 -27.49005127 101.78137207 C-29.75590898 99.51845273 -32.01813542 97.25198135 -34.27783203 94.98291016 C-37.17174864 92.07757248 -40.07458898 89.18134314 -42.98019028 86.28769684 C-45.21944433 84.05567287 -47.45390936 81.8189036 -49.68695831 79.58067322 C-50.75559027 78.51070937 -51.82570366 77.44222295 -52.89733124 76.3752594 C-54.39315719 74.88452052 -55.88240938 73.38750668 -57.37011719 71.88867188 C-58.21805847 71.0391394 -59.06599976 70.18960693 -59.93963623 69.31433105 C-62.36832204 66.58627736 -63.8960799 64.48952142 -64.15234375 60.81640625 C-64.04599609 59.70072266 -64.04599609 59.70072266 -63.9375 58.5625 C-63.88464844 57.82128906 -63.83179688 57.08007812 -63.77734375 56.31640625 C-62.66941753 53.01489745 -60.49387405 51.40786318 -58 49 C-56.35227536 47.34767478 -54.70491249 45.69498874 -53.05786133 44.04199219 C-48.34661003 39.31449045 -43.63288789 34.58946088 -38.91769886 29.86588669 C-36.07182401 27.01476764 -33.22690361 24.16270881 -30.3840332 21.30859375 C-27.62480057 18.53852231 -24.86315533 15.77087771 -22.0997982 13.00492096 C-21.04832609 11.95159977 -19.99773521 10.89739814 -18.9480381 9.84230804 C-17.4856487 8.37269286 -16.0201936 6.90620319 -14.55395508 5.44042969 C-13.72076248 4.60501648 -12.88756989 3.76960327 -12.02912903 2.90887451 C-8.37194703 -0.53156786 -4.83579357 -0.50411748 0 0 Z " fill="#FD943D" transform="translate(458,333)"/>
<path d="M0 0 C1.84890747 1.22102356 1.84890747 1.22102356 3.64111328 2.88598633 C4.33215149 3.52404205 5.0231897 4.16209778 5.73516846 4.81948853 C10.04691811 8.970711 14.3208198 13.15611799 18.5546875 17.38671875 C19.54730319 18.37611318 20.53999048 19.36543578 21.53274536 20.35469055 C23.59683805 22.41284164 25.65890104 24.4730016 27.71972656 26.53442383 C30.35747195 29.17227155 33.00207572 31.80312845 35.64842033 34.43234539 C37.69359235 36.4664023 39.73420673 38.5049845 41.77356339 40.54487038 C42.74715964 41.51728943 43.7223713 42.48809399 44.69924545 43.45722008 C46.06059001 44.80875797 47.41497562 46.16729439 48.76904297 47.52612305 C49.53989227 48.29554733 50.31074158 49.06497162 51.10494995 49.85771179 C54.58737998 53.79447789 55.22681407 56.62211352 55.36328125 61.90234375 C54.47359137 67.03958531 50.66818744 70.58412588 47.1171875 74.14160156 C46.63388977 74.62840393 46.15059204 75.1152063 45.65264893 75.61676025 C44.06506903 77.21309253 42.47034566 78.80205651 40.875 80.390625 C39.76516967 81.5018034 38.65563631 82.61327849 37.54638672 83.72503662 C35.22621864 86.04814678 32.90248778 88.36761698 30.57617188 90.68457031 C27.59335877 93.65596283 24.61964977 96.63627967 21.64852905 99.61935806 C19.36163752 101.9134702 17.07001187 104.20280544 14.7769165 106.49071503 C13.67821394 107.58808303 12.58099622 108.68693976 11.48529053 109.78730011 C9.95591457 111.32174743 8.4202877 112.84965038 6.8828125 114.37597656 C6.01027832 115.24691956 5.13774414 116.11786255 4.23876953 117.01519775 C1.37286069 119.55599627 -0.51796743 119.95452523 -4.3125 120.3125 C-8.73267921 119.93790854 -10.62729281 118.83614013 -14 116 C-16.28859389 113.17740087 -16.95017815 111.26405578 -17.625 107.6875 C-16.96974054 103.8214692 -16.49863011 103.06356737 -13.98217773 100.296875 C-13.34553192 99.59651123 -12.70888611 98.89614746 -12.052948 98.17456055 C-8.65193754 94.57208101 -5.1756265 91.05309635 -1.66015625 87.5625 C-0.89319931 86.79695801 -0.12624237 86.03141602 0.66395569 85.24267578 C3.08610881 82.82606803 5.51173612 80.41298274 7.9375 78 C9.59202893 76.35049314 11.24632802 74.70075571 12.90039062 73.05078125 C16.93094202 69.03118629 20.96434272 65.01446831 25 61 C23.20691005 57.13989002 20.91976852 54.68562165 17.875 51.6875 C17.38290039 51.20112061 16.89080078 50.71474121 16.38378906 50.21362305 C13.58961628 47.47444293 10.72928768 44.84781539 7.75 42.3125 C4.46873557 39.50947654 1.71310964 36.47071895 -1.07421875 33.18359375 C-5.48722511 28.17979952 -10.28962685 23.4206436 -15.265625 18.9765625 C-17.81771916 16.06809483 -17.62076194 13.98519212 -17.4609375 10.25390625 C-15.72112217 1.74650418 -7.83657884 -1.47317334 0 0 Z " fill="#FC933D" transform="translate(578,333)"/>
<path d="M0 0 C4.88878616 3.79322685 9.14998632 9.64319821 10.1875 15.8125 C11.15483436 26.00012261 10.42287513 34.3201486 4.1875 42.8125 C-2.3526391 49.45756112 -8.78728947 52.0905352 -18.125 52.1875 C-27.90884433 52.02475504 -33.97249653 49.29397937 -41.08984375 42.671875 C-46.66420862 36.65510022 -49.29095514 29.31819206 -49.05859375 21.171875 C-48.16985979 12.65131447 -44.28425642 5.48601939 -37.66796875 0.05078125 C-25.39552986 -8.58383078 -12.54065077 -7.97286407 0 0 Z " fill="#28B2DF" transform="translate(639.8125,246.1875)"/>
<path d="M0 0 C6.22795916 3.54138854 10.63300839 8.80930185 12.77734375 15.7109375 C14.41201 24.086656 13.36100484 32.34412292 9.1875 39.8125 C5.29177907 44.24907554 1.56455653 47.51132975 -4.484375 48.05078125 C-12.30483269 48.23934559 -16.57441576 47.6890415 -22.4609375 42.3046875 C-27.9592098 36.5382068 -29.90939431 30.1793926 -30.25 22.3125 C-30.03557319 15.35337542 -27.86001478 10.167142 -23.3125 4.9375 C-15.94911482 -1.32137741 -9.44202991 -2.94096014 0 0 Z " fill="#051F38" transform="translate(863.8125,722.1875)"/>
<path d="M0 0 C5.66035233 2.44710182 9.14794088 7.09482151 11.625 12.625 C14.04310108 20.05202475 13.65525335 28.56761095 10.86328125 35.83203125 C8.40372124 40.48362018 5.14980734 44.713518 0.4140625 47.12890625 C-5.51540269 48.92861196 -12.07882419 49.11510038 -17.921875 46.9453125 C-23.92126189 43.38191828 -27.49006892 38.68108207 -29.25 31.9375 C-30.25346235 24.31979792 -30.82341497 15.21612869 -26.58984375 8.51171875 C-19.26439116 -0.09515411 -11.12973878 -3.4673417 0 0 Z " fill="#051F38" transform="translate(387.25,722.0625)"/>
<path d="M0 0 C6.52380354 2.9766404 10.32198445 7.77002577 13.05786133 14.37036133 C14.10012965 17.62565952 14.16861961 20.86844007 14.1171875 24.25 C14.10888916 24.95366699 14.10059082 25.65733398 14.09204102 26.38232422 C13.87512603 33.04107385 12.61233063 37.29140127 7.99609375 42.046875 C2.10396279 47.36879974 -2.30170687 48.83712434 -10.27734375 48.69140625 C-16.25975721 47.94648442 -20.22734385 44.73401484 -24.1953125 40.375 C-29.31422993 32.99773664 -29.04373518 24.99357221 -28.3203125 16.3125 C-26.72119127 9.53299203 -23.05262985 5.14661577 -17.3203125 1.3125 C-12.10317147 -1.82425215 -5.75164317 -1.70419057 0 0 Z " fill="#041E37" transform="translate(289.3203125,721.6875)"/>
<path d="M0 0 C1.60004883 0.00966797 1.60004883 0.00966797 3.23242188 0.01953125 C4.33521484 0.03628906 5.43800781 0.05304687 6.57421875 0.0703125 C7.69634766 0.07933594 8.81847656 0.08835937 9.97460938 0.09765625 C12.73719784 0.12116764 15.49934807 0.15403095 18.26171875 0.1953125 C18.30405823 1.9568232 18.33428164 3.71862798 18.359375 5.48046875 C18.37750244 6.46152588 18.39562988 7.44258301 18.41430664 8.45336914 C18.1933255 12.42431187 16.98069137 14.33690539 14.26171875 17.1953125 C7.42078525 22.11570551 0.52264138 23.09193941 -7.73828125 22.1953125 C-11.00949692 20.833919 -13.24158617 18.69200758 -15.73828125 16.1953125 C-16.3088801 13.1381039 -16.25754349 10.25789997 -15.73828125 7.1953125 C-11.53796303 1.55488517 -6.85403823 -0.07330522 0 0 Z " fill="#051D36" transform="translate(756.73828125,750.8046875)"/>
<path d="M0 0 C3.9188771 2.28534106 6.79453556 5.26592653 8.625 9.4375 C9.12 12.9025 9.12 12.9025 9.625 16.4375 C-3.245 16.4375 -16.115 16.4375 -29.375 16.4375 C-25.3125 4.25 -25.3125 4.25 -18.75 -0.4375 C-12.534702 -2.509266 -6.07072716 -2.66744072 0 0 Z " fill="#0C243B" transform="translate(486.375,720.5625)"/>
<path d="M0 0 C-1.39677956 3.18725279 -3.02289845 5.22797008 -5.5546875 7.6015625 C-6.25207031 8.25640625 -6.94945312 8.91125 -7.66796875 9.5859375 C-8.39628906 10.25882812 -9.12460937 10.93171875 -9.875 11.625 C-10.59558594 12.305625 -11.31617188 12.98625 -12.05859375 13.6875 C-15.24648802 16.65817127 -17.99344202 19.19943707 -22 21 C-17.77883845 15.96956668 -13.39019121 11.20760667 -8.75 6.5625 C-8.12609375 5.92634766 -7.5021875 5.29019531 -6.859375 4.63476562 C-6.26125 4.03470703 -5.663125 3.43464844 -5.046875 2.81640625 C-4.24008301 2.00345093 -4.24008301 2.00345093 -3.41699219 1.17407227 C-2 0 -2 0 0 0 Z " fill="#F39A3B" transform="translate(446,338)"/>
<path d="M0 0 C7.05909078 1.12276571 14.03843148 2.37563401 21 4 C21 4.33 21 4.66 21 5 C13.06714481 5.36801906 6.4654395 4.77476512 -1 2 C-0.67 1.34 -0.34 0.68 0 0 Z " fill="#D3D8DD" transform="translate(265,785)"/>
<path d="M0 0 C1.66611905 -0.042721 3.33382885 -0.04063832 5 0 C5.33 0.33 5.66 0.66 6 1 C8.34723966 1.397493 10.70328548 1.74368723 13.0625 2.0625 C14.35285156 2.23910156 15.64320313 2.41570313 16.97265625 2.59765625 C18.47119141 2.79681641 18.47119141 2.79681641 20 3 C20 3.33 20 3.66 20 4 C5.21867882 4.3690205 5.21867882 4.3690205 -1 2 C-0.67 1.34 -0.34 0.68 0 0 Z " fill="#E4E8EA" transform="translate(736,786)"/>
<path d="M0 0 C0.268125 0.639375 0.53625 1.27875 0.8125 1.9375 C1.88667752 4.33131686 1.88667752 4.33131686 5 5 C5.268125 5.763125 5.53625 6.52625 5.8125 7.3125 C7.87647186 11.98359422 12.51331645 13.92922297 17 16 C11.45888291 15.77383196 8.56839859 14.47981194 4.51171875 10.6875 C1.56337129 7.39632144 0 4.41583675 0 0 Z " fill="#091326" transform="translate(458,754)"/>
<path d="M0 0 C2.30587304 2.30587304 2.68287595 3.77098633 3.5625 6.875 C3.81128906 7.73867188 4.06007813 8.60234375 4.31640625 9.4921875 C4.90611487 11.65557569 5.46810836 13.8217771 6 16 C1.71239766 12.5994878 0.03632162 8.25909008 -1 3 C-0.67 2.01 -0.34 1.02 0 0 Z " fill="#EAECED" transform="translate(339,759)"/>
<path d="M0 0 C0.66 0 1.32 0 2 0 C1.67 3.63 1.34 7.26 1 11 C0.01 11.33 -0.98 11.66 -2 12 C-1.85831863 10.56208484 -1.71148957 9.1246763 -1.5625 7.6875 C-1.48128906 6.88699219 -1.40007812 6.08648438 -1.31640625 5.26171875 C-1 3 -1 3 0 0 Z " fill="#E1E5E7" transform="translate(338,727)"/>
<path d="M0 0 C0.33 0.66 0.66 1.32 1 2 C0.34016792 3.33672879 -0.32757593 4.66956094 -1 6 C-1.34978122 8.32922494 -1.50015539 10.62733863 -1.65625 12.9765625 C-2 15 -2 15 -4 17 C-5.7988346 11.93055704 -4.0109779 7.73067049 -2 3 C-1.34 2.01 -0.68 1.02 0 0 Z " fill="#0A182A" transform="translate(357,227)"/>
<path d="M0 0 C0.66 0.33 1.32 0.66 2 1 C-1.06093224 4.93548431 -3.49115974 7.68116787 -8 10 C-6.5682479 4.98886765 -4.01554307 3.05530451 0 0 Z " fill="#38B6DE" transform="translate(604,245)"/>
<path d="M0 0 C0 0.66 0 1.32 0 2 C-0.99 2.33 -1.98 2.66 -3 3 C-4.65637688 4.63044124 -4.65637688 4.63044124 -6.1875 6.5625 C-6.71730469 7.20316406 -7.24710937 7.84382812 -7.79296875 8.50390625 C-8.19128906 8.99761719 -8.58960938 9.49132812 -9 10 C-9.66 9.01 -10.32 8.02 -11 7 C-9.87720538 6.01830524 -8.75168527 5.03972702 -7.625 4.0625 C-6.68527344 3.24458984 -6.68527344 3.24458984 -5.7265625 2.41015625 C-3.71547429 0.76761588 -2.62199195 0 0 0 Z " fill="#08172E" transform="translate(373,722)"/>
<path d="M0 0 C0.33 0 0.66 0 1 0 C1.25427918 3.1234924 1.47412319 6.24846821 1.6875 9.375 C1.76033203 10.26445313 1.83316406 11.15390625 1.90820312 12.0703125 C1.96298828 12.92109375 2.01777344 13.771875 2.07421875 14.6484375 C2.13182373 15.43395996 2.18942871 16.21948242 2.2487793 17.02880859 C2.16668213 17.67930176 2.08458496 18.32979492 2 19 C1.01 19.66 0.02 20.32 -1 21 C-0.67 14.07 -0.34 7.14 0 0 Z " fill="#EEEFF1" transform="translate(323,737)"/>
<path d="M0 0 C0 3 0 3 0 3 Z M-2 3 C-2 3.99 -2 4.98 -2 6 C-2.99 6.495 -2.99 6.495 -4 7 C-3.34 5.68 -2.68 4.36 -2 3 Z M-5 7 C-4.34 7.66 -3.68 8.32 -3 9 C-4.375 10.5 -4.375 10.5 -6 12 C-6.66 12 -7.32 12 -8 12 C-8.33 12.66 -8.66 13.32 -9 14 C-8.43628586 10.73045798 -7.50037734 9.17424117 -5 7 Z " fill="#E8ECEE" transform="translate(535,760)"/>
<path d="M0 0 C1.5 1.0625 1.5 1.0625 3 3 C3.1875 6.6875 3.1875 6.6875 3 10 C2.01 10.33 1.02 10.66 0 11 C-0.19406478 9.35492782 -0.38007935 7.70890406 -0.5625 6.0625 C-0.66691406 5.14597656 -0.77132812 4.22945312 -0.87890625 3.28515625 C-0.91886719 2.53105469 -0.95882812 1.77695312 -1 1 C-0.67 0.67 -0.34 0.34 0 0 Z " fill="#DEE1E3" transform="translate(776,777)"/>
<path d="M0 0 C3.7952131 1.49097658 5.61042731 3.75700849 8 7 C5 7 5 7 2.3125 4.625 C0 2 0 2 0 0 Z " fill="#2A2338" transform="translate(590,380)"/>
<path d="M0 0 C0.99 0.33 1.98 0.66 3 1 C3.33 1.99 3.66 2.98 4 4 C3.01 4.66 2.02 5.32 1 6 C0.34 5.34 -0.32 4.68 -1 4 C-0.625 1.875 -0.625 1.875 0 0 Z " fill="#E5E8EB" transform="translate(225,770)"/>
<path d="M0 0 C0.66 0 1.32 0 2 0 C1.6875 1.9375 1.6875 1.9375 1 4 C0.01 4.33 -0.98 4.66 -2 5 C-2.33 5.99 -2.66 6.98 -3 8 C-3.66 7.67 -4.32 7.34 -5 7 C-4.21654285 5.82780457 -3.42297164 4.66236332 -2.625 3.5 C-2.18414063 2.8503125 -1.74328125 2.200625 -1.2890625 1.53125 C-0.65097656 0.77328125 -0.65097656 0.77328125 0 0 Z " fill="#0A162D" transform="translate(605,694)"/>
<path d="M0 0 C3.36720387 1.39332574 4.9859524 2.9789286 7 6 C4 6 4 6 1.8125 4.125 C0 2 0 2 0 0 Z " fill="#1B1E39" transform="translate(568,358)"/>
<path d="M0 0 C1.17539996 0.92652701 2.34010577 1.86663387 3.5 2.8125 C4.1496875 3.33457031 4.799375 3.85664062 5.46875 4.39453125 C7 6 7 6 7 9 C3.99234114 6.15063897 1.72154788 3.76488042 0 0 Z " fill="#182435" transform="translate(342,773)"/>
<path d="M0 0 C2.31 1.98 4.62 3.96 7 6 C5.68 6.33 4.36 6.66 3 7 C1.25 5.8125 1.25 5.8125 0 4 C0 2.68 0 1.36 0 0 Z " fill="#211F39" transform="translate(480,464)"/>
</svg>
